<?xml version="1.0" standalone="no"?>
<!DOCTYPE svg PUBLIC "-//W3C//DTD SVG 20010904//EN"
 "http://www.w3.org/TR/2001/REC-SVG-20010904/DTD/svg10.dtd">
<svg version="1.0" xmlns="http://www.w3.org/2000/svg"
 width="640.000000pt" height="640.000000pt" viewBox="0 0 640.000000 640.000000"
 preserveAspectRatio="xMidYMid meet">

<g transform="translate(0.000000,640.000000) scale(0.100000,-0.100000)"
fill="#000000" stroke="none">
<path d="M0 3200 l0 -3200 3200 0 3200 0 0 3200 0 3200 -3200 0 -3200 0 0
-3200z m3570 1916 c266 -53 349 -95 365 -180 10 -49 3 -68 -55 -166 -93 -157
-121 -172 -258 -135 -174 47 -259 59 -432 59 -172 0 -290 -16 -413 -54 -139
-44 -183 -23 -269 125 -45 79 -58 109 -58 143 0 52 20 93 55 116 52 34 315
100 475 120 19 2 130 3 245 1 181 -2 229 -6 345 -29z m-1480 -441 c16 -15 53
-69 82 -119 45 -78 53 -98 53 -142 l0 -52 -96 -99 c-208 -214 -333 -428 -402
-690 -41 -158 -62 -175 -215 -181 -127 -5 -184 8 -223 50 -42 44 -46 86 -19
197 85 359 262 672 531 943 114 115 140 130 207 125 41 -3 59 -10 82 -32z
m-468 -1684 c52 -20 70 -48 103 -163 61 -207 104 -304 203 -453 66 -99 162
-212 234 -275 51 -45 73 -94 65 -145 -7 -43 -110 -218 -143 -244 -14 -11 -41
-23 -59 -27 -60 -11 -103 13 -208 115 -265 257 -446 566 -537 919 -36 137 -37
169 -7 213 37 56 75 69 209 69 64 0 127 -4 140 -9z m3435 -7 c75 -36 90 -97
57 -234 -83 -350 -264 -670 -531 -938 -133 -133 -175 -151 -258 -113 -33 15
-50 34 -97 113 -100 169 -98 191 34 326 206 210 331 428 398 693 39 152 62
169 238 169 95 0 132 -4 159 -16z m-2241 -1241 l139 -37 230 0 230 -1 149 39
c208 54 217 51 316 -119 63 -108 73 -157 41 -208 -28 -45 -50 -59 -136 -85
-391 -119 -810 -119 -1182 -1 -118 38 -153 73 -153 152 0 39 6 61 25 89 14 20
25 40 25 43 0 11 73 120 89 132 14 11 61 29 82 32 4 1 69 -16 145 -36z"/>
</g>
</svg>
